# xmcd
#
# Track frame offsets: 
#        150
#        22376
#        40018
#        58973
#        79324
#        94384
#        112936
#        128234
#        147499
#        165410
#
# Disc length: 2439 seconds
#
# Revision: 0
# Processed by: cddbd v1.5.2PL0 Copyright (c) Steve Scherf et al.
# Submitted via: ExactAudioCopy v0.99pb3
#
DISCID=8d09850a
DTITLE=Various Artist - Juice CD 057
DYEAR=2005
DGENRE=Hip-Hop
TTITLE0=Samy Deluxe - Sell Out Samy 2005
TTITLE1=Massive Töne - Bumerang (Remix)
TTITLE2=Tefla and Jaleel - Nichts ist umsonst
TTITLE3=Separate - Zahltag (Remix) feat. Olli Banjo
TTITLE4=Dean Dawson - Also Was!?! (DJ Desue Remix) feat. Afrob and Samy 
TTITLE4=Deluxe
TTITLE5=Joe Rilla - Kauf Dir meins
TTITLE6=Jim Jones - Baby Girl feat. Max B
TTITLE7=S.A.S. - From NY To UK feat. Juelz Santana
TTITLE8=AZ - Never Change
TTITLE9=Medina Green - Yo-Yo-Yo feat. Mos Def
EXTD=
EXTT0=
EXTT1=
EXTT2=
EXTT3=
EXTT4=
EXTT5=
EXTT6=
EXTT7=
EXTT8=
EXTT9=
PLAYORDER=
